<?xml version="1.0" encoding="UTF-8" standalone="no"?>
<!-- Created with Inkscape (http://www.inkscape.org/) -->

<svg
   xmlns:dc="http://purl.org/dc/elements/1.1/"
   xmlns:cc="http://creativecommons.org/ns#"
   xmlns:rdf="http://www.w3.org/1999/02/22-rdf-syntax-ns#"
   xmlns:svg="http://www.w3.org/2000/svg"
   xmlns="http://www.w3.org/2000/svg"
   xmlns:sodipodi="http://sodipodi.sourceforge.net/DTD/sodipodi-0.dtd"
   xmlns:inkscape="http://www.inkscape.org/namespaces/inkscape"
   width="210mm"
   height="297mm"
   viewBox="0 0 744.09448819 1052.3622047"
   id="svg2"
   version="1.1"
   inkscape:version="0.91 r13725"
   sodipodi:docname="punk chick.svg">
  <defs
     id="defs4" />
  <sodipodi:namedview
     id="base"
     pagecolor="#ffffff"
     bordercolor="#666666"
     borderopacity="1.0"
     inkscape:pageopacity="0.0"
     inkscape:pageshadow="2"
     inkscape:zoom="0.98994949"
     inkscape:cx="591.16836"
     inkscape:cy="668.95295"
     inkscape:document-units="px"
     inkscape:current-layer="layer11"
     showgrid="false"
     inkscape:window-width="2495"
     inkscape:window-height="1416"
     inkscape:window-x="65"
     inkscape:window-y="24"
     inkscape:window-maximized="1" />
  <metadata
     id="metadata7">
    <rdf:RDF>
      <cc:Work
         rdf:about="">
        <dc:format>image/svg+xml</dc:format>
        <dc:type
           rdf:resource="http://purl.org/dc/dcmitype/StillImage" />
        <dc:title />
      </cc:Work>
    </rdf:RDF>
  </metadata>
  <g
     inkscape:groupmode="layer"
     id="layer20"
     inkscape:label="back arm"
     style="display:inline">
    <path
       style="display:inline;fill:#ffe7cd;fill-opacity:1"
       d="m 554.55782,503.22922 c -2.19574,2.13595 -8.57959,-9.33437 -17.90231,-19.10574 -9.32268,-9.77137 -18.06671,-14.15696 -15.9167,-16.34084 2.15003,-2.18385 14.38824,0.44841 22.69816,11.69776 8.28861,11.27054 13.31657,21.61284 11.12085,23.74882 z"
       id="path4237-3"
       inkscape:connector-curvature="0"
       sodipodi:nodetypes="ssscs" />
    <path
       style="display:inline;fill:#ffe7cd;fill-opacity:1"
       d="m 543.55242,516.41027 c -2.61698,1.59217 -6.38967,-10.02347 -13.29704,-21.62867 -6.90735,-11.60521 -14.3432,-18.82123 -11.76011,-20.47032 2.58311,-1.64905 13.92544,3.64758 19.51577,16.46751 5.56484,12.83583 8.15834,24.03929 5.54138,25.63148 z"
       id="path4237-5-4"
       inkscape:connector-curvature="0"
       sodipodi:nodetypes="ssscs" />
    <path
       style="display:inline;fill:#ffe7cd;fill-opacity:1"
       d="m 531.98255,517.69908 c -2.61886,1.58898 -4.62499,-9.27718 -10.75053,-19.56547 -6.1255,-10.28829 -12.0674,-20.67684 -9.47856,-22.31625 2.58888,-1.63933 11.34048,7.20852 16.12742,18.67524 4.7614,11.48255 6.72055,21.61752 4.10167,23.20648 z"
       id="path4237-6-4"
       inkscape:connector-curvature="0"
       sodipodi:nodetypes="ssscs" />
    <path
       style="display:inline;fill:#ffe7cd;fill-opacity:1"
       d="m 524.96142,516.58101 c -2.12698,1.29696 -6.56054,-7.83437 -12.68367,-18.12408 -6.12309,-10.28972 -7.46896,-22.23213 -5.37201,-23.57951 2.09701,-1.34731 6.92084,8.65765 11.98682,19.95871 5.04526,11.31403 8.19585,20.44796 6.06886,21.74488 z"
       id="path4237-1-4"
       inkscape:connector-curvature="0"
       sodipodi:nodetypes="ssscs" />
    <path
       style="display:inline;fill:#ffe7cd;fill-opacity:1"
       d="m 528.2731,488.15131 c -2.5854,2.72904 -11.31705,5.40982 -16.34594,4.92623 -5.02889,-0.48359 -5.3139,-6.68664 -13.9508,-12.98855 -8.34788,-6.09103 -5.69112,-16.47345 -2.17318,-19.98577 5.3208,-5.31234 20.37395,-4.8676 28.85833,3.12863 19.73542,13.23482 8.78241,19.46137 3.61159,24.91946 z"
       id="path4235-0"
       inkscape:connector-curvature="0"
       sodipodi:nodetypes="sssscs" />
    <path
       style="display:inline;fill:#ffe7cd;fill-opacity:1;fill-rule:evenodd"
       d="m 408.93288,386.22352 c 9.61151,-7.6661 31.32379,2.32015 47.50256,26.77298 16.17879,24.45283 43.33672,44.94705 43.33672,44.94705 0,0 0.36137,11.42221 -7.85562,8.05325 -14.23023,-5.83438 -33.89283,-19.30291 -49.21813,-29.72549 -30.65059,-20.84516 -43.37703,-42.38171 -33.76553,-50.04779 z"
       id="path5996-1"
       inkscape:connector-curvature="0"
       sodipodi:nodetypes="zscssz" />
    <path
       style="display:inline;fill:#ffe7cd;fill-opacity:1"
       d="m 399.13069,284.4771 c 31.007,25.40046 27.28532,124.34672 5.46693,108.13142 -21.8184,-16.21532 -32.30516,-102.34547 -5.46693,-108.13142 z"
       id="rect5993-7"
       inkscape:connector-curvature="0"
       sodipodi:nodetypes="czc" />
    <path
       style="display:inline;fill:#ffe7cd;fill-opacity:1"
       id="path5989-0"
       d="m 406.70422,267.9165 c -6.91667,-5.29836 -20.76295,-7.3637 -26.48753,-0.87699 -22.23629,30.23976 31.91036,66.11447 34.76734,30.6138 0.82348,-10.23241 0.0552,-23.35194 -8.27981,-29.73681 z"
       inkscape:connector-curvature="0"
       sodipodi:nodetypes="acsa" />
    <path
       style="display:inline;fill:#ffe7cd;fill-opacity:1"
       id="path5989-3-8"
       d="m 401.70698,378.3255 c -0.12865,-4.31557 3.10077,-10.394 7.43272,-10.70623 18.88561,0.29919 17.60524,32.4035 2.2719,22.88628 -4.41955,-2.74316 -9.54958,-6.9795 -9.70462,-12.18005 z"
       inkscape:connector-curvature="0"
       sodipodi:nodetypes="acsa" />
    <path
       style="display:inline;fill:#ffeddd;fill-opacity:1"
       d="m 549.86039,475.90467 c -6.24455,9.0999 -20.6292,-11.17785 -27.38525,-3.10899 -3.98542,4.75984 -17.76504,-5.94503 -23.75059,-5.81927 -11.9711,0.25151 2.47407,-10.69622 4.87989,-11.3479 11.49661,-0.41642 36.48619,9.01245 46.25595,20.27616 z"
       id="path4237-1-1-6"
       inkscape:connector-curvature="0"
       sodipodi:nodetypes="csscc" />
    <ellipse
       style="fill:#ffeddd;fill-opacity:1"
       id="path5433"
       cx="324.84998"
       cy="-546.862"
       rx="2.6714649"
       ry="6.4106436"
       transform="matrix(1,0,-0.35946663,-0.93315794,0,0)" />
    <ellipse
       style="display:inline;fill:#ffeddd;fill-opacity:1"
       id="path5433-8"
       cx="392.42212"
       cy="-528.92383"
       rx="2.6714649"
       ry="6.8397827"
       transform="matrix(1,0,-0.2585898,-0.96598722,0,0)" />
    <ellipse
       style="display:inline;fill:#ffeddd;fill-opacity:1"
       id="path5433-8-5"
       cx="403.87598"
       cy="-527.44495"
       rx="2.6714649"
       ry="6.8397827"
       transform="matrix(1,0,-0.2585898,-0.96598722,0,0)" />
    <ellipse
       style="display:inline;fill:#ffeddd;fill-opacity:1"
       id="path5433-8-5-6"
       cx="269.00589"
       cy="-571.05084"
       rx="2.6714649"
       ry="7.5887747"
       transform="matrix(1,0,-0.49190863,-0.87064683,0,0)" />
  </g>
  <g
     inkscape:groupmode="layer"
     id="layer5"
     inkscape:label="hair back"
     style="display:inline">
    <path
       style="fill:#ffd5d5;fill-opacity:1"
       d="m 342.74859,85.184545 c 14.08347,18.314345 -24.74479,2.784574 -40.71253,5.217716 4.48553,-16.488189 25.21457,-18.159856 40.71253,-5.217716 z"
       id="path5644-2"
       inkscape:connector-curvature="0"
       sodipodi:nodetypes="ccc" />
    <path
       style="fill:#ffd5d5;fill-opacity:1"
       d="m 327.14493,89.259175 c 20.24813,7.371163 -15.25441,16.627105 -37.33383,33.075885 -3.50409,-16.80102 18.26769,-35.000735 37.33383,-33.075885 z"
       id="path5644-2-9"
       inkscape:connector-curvature="0"
       sodipodi:nodetypes="ccc" />
    <path
       style="fill:#ffd5d5;fill-opacity:1"
       d="m 313.35686,105.54169 c 20.92336,-4.17288 -6.92101,22.84485 -19.97525,49.14472 -9.81006,-13.06787 2.27291,-40.76009 19.97525,-49.14472 z"
       id="path5644-2-9-7"
       inkscape:connector-curvature="0"
       sodipodi:nodetypes="ccc" />
    <path
       style="fill:#ffd5d5;fill-opacity:1"
       d="m 418.68084,120.19863 c -34.7537,-42.683031 16.41432,0.33977 31.2703,-13.41078 -16.76675,17.97876 -20.12948,14.41502 -31.2703,13.41078 z"
       id="path5644-9-3"
       inkscape:connector-curvature="0"
       sodipodi:nodetypes="ccc" />
  </g>
  <g
     inkscape:groupmode="layer"
     id="layer3"
     inkscape:label="head"
     style="display:inline">
    <path
       style="fill:#483e37;fill-opacity:1"
       id="path3338"
       sodipodi:type="arc"
       sodipodi:cx="364.59488"
       sodipodi:cy="148.09312"
       sodipodi:rx="68.650055"
       sodipodi:ry="71.106949"
       sodipodi:start="0"
       sodipodi:end="6.2733766"
       sodipodi:open="true"
       d="m 433.24493,148.09312 a 68.650055,71.106949 0 0 1 -68.48171,71.10674 68.650055,71.106949 0 0 1 -68.81757,-70.758 68.650055,71.106949 0 0 1 68.14421,-71.45376 68.650055,71.106949 0 0 1 69.15177,70.40757" />
  </g>
  <g
     inkscape:groupmode="layer"
     id="layer4"
     inkscape:label="neck"
     style="display:inline">
    <path
       style="fill:#ffeddd;fill-opacity:1"
       d="m 367.89062,184.48881 c 20.32845,4.15816 1.46107,76.2709 1.46107,76.2709 0,0 8.12688,20.90017 0.8098,24.64285 -12.82459,6.55977 -34.19118,-26.42857 -34.19118,-26.42857 16.84195,-57.177 8.03666,-79.37054 31.92031,-74.48518 z"
       id="rect5608"
       inkscape:connector-curvature="0"
       sodipodi:nodetypes="scacs" />
    <path
       style="fill:#ffe7cd;fill-opacity:1"
       id="path5563"
       sodipodi:type="arc"
       sodipodi:cx="261.86441"
       sodipodi:cy="239.72978"
       sodipodi:rx="11.885952"
       sodipodi:ry="21.593239"
       sodipodi:start="0"
       sodipodi:end="6.2733766"
       sodipodi:open="true"
       d="m 273.75036,239.72978 a 11.885952,21.593239 0 0 1 -11.8568,21.59318 11.885952,21.593239 0 0 1 -11.91496,-21.48728 11.885952,21.593239 0 0 1 11.79837,-21.69855 11.885952,21.593239 0 0 1 11.97282,21.38085"
       transform="matrix(1,0,0.41531818,0.90967621,0,0)" />
  </g>
  <g
     inkscape:groupmode="layer"
     id="layer6"
     inkscape:label="chest"
     style="display:inline">
    <path
       style="fill:#ffe7cd;fill-opacity:1"
       id="path5565"
       sodipodi:type="arc"
       sodipodi:cx="321.22852"
       sodipodi:cy="312.80429"
       sodipodi:rx="10.859139"
       sodipodi:ry="13.51079"
       sodipodi:start="0"
       sodipodi:end="6.2733766"
       sodipodi:open="true"
       d="m 332.08766,312.80429 a 10.859139,13.51079 0 0 1 -10.83252,13.51075 10.859139,13.51079 0 0 1 -10.88563,-13.44449 10.859139,13.51079 0 0 1 10.77912,-13.57668 10.859139,13.51079 0 0 1 10.9385,13.3779" />
    <path
       style="fill:#ffeddd;fill-opacity:1"
       d="m 354.22813,337.17404 c -33.15362,1.03849 -58.31805,-26.05339 -58.50515,-49.16549 -0.18709,-23.11209 14.5011,-32.35931 52.64941,-32.52934 38.14831,-0.17002 62.31671,19.72559 60.73604,35.70064 -1.58067,15.97505 -21.72668,44.9557 -54.8803,45.99419 z"
       id="path5917"
       inkscape:connector-curvature="0"
       sodipodi:nodetypes="zsszz" />
    <path
       style="fill:#004455;fill-rule:evenodd"
       d="m 322.99628,257.49841 c 0,0 -2.97331,-1.79566 -4.54569,-1.51522 -2.12255,0.37856 -5.05077,4.04061 -5.05077,4.04061 0,0 12.97415,4.23001 22.79157,26.13769 6.77177,15.1113 2.49208,32.39154 -11.30108,38.76461 -7.15613,3.30646 -17.54396,-9.08393 -17.54396,-9.08393 0,0 -2.70804,4.66044 16.66753,33.4613 9.95251,14.79394 52.1082,-5.92151 69.188,1.8866 8.5399,3.90405 14.28866,-15.40139 14.28866,-15.40139 0,0 7.88184,-8.11188 8.56603,-17.80738 0.27564,-3.90599 -6.4034,-16.15518 -10.06337,-24.69421 -3.65996,-8.53902 -4.30083,-13.36788 -9.12145,-20.61597 -9.64123,-14.49618 -15.03409,-14.16254 -15.03409,-14.16254 l -5.05077,1.26268 c 0,0 7.71904,4.9546 15.58761,15.48156 7.86856,10.52696 11.5935,22.20684 7.14083,29.84904 -8.90535,15.28439 -21.97148,7.5647 -39.14341,-0.63135 -8.58597,-4.09802 -15.21509,-18.01919 -22.85445,-29.52689 -7.63936,-11.5077 -14.52119,-17.44521 -14.52119,-17.44521 z"
       id="path5919"
       inkscape:connector-curvature="0"
       sodipodi:nodetypes="cacsscsscsssccssssc" />
  </g>
  <g
     inkscape:groupmode="layer"
     id="layer8"
     inkscape:label="abs"
     style="display:inline">
    <path
       transform="matrix(0.95756621,-0.28821338,0.57487558,0.81824084,0,0)"
       style="fill:#004455;fill-opacity:1"
       d="m 82.166957,513.70593 c -23.69977,0.0434 -41.533836,-13.69176 -41.920642,-19.01287 -0.3868,-5.32111 18.406728,-9.71689 42.100188,-9.84716 23.693447,-0.13027 36.550037,5.56122 37.335047,11.03836 0.0115,5.47997 -13.81482,17.77825 -37.514593,17.82167 z"
       id="path5923"
       inkscape:connector-curvature="0"
       sodipodi:nodetypes="ssscs" />
    <path
       transform="matrix(0.99915953,0.04099076,0.26009502,0.96558303,0,0)"
       style="fill:#004455;fill-opacity:1"
       inkscape:transform-center-x="-3.7572725"
       inkscape:transform-center-y="7.0710758"
       d="m 271.54545,388.10756 c -22.15378,0.005 -40.13624,-4.30147 -40.17893,-9.6224 -0.0427,-5.32093 17.87054,-9.64414 40.02424,-9.65952 22.1537,-0.0154 30.36796,21.34331 30.4108,26.6828 -3.79552,17.33837 -8.10233,-7.40601 -30.25611,-7.40088 z"
       id="path5923-9"
       inkscape:connector-curvature="0"
       sodipodi:nodetypes="ssscs" />
    <path
       style="fill:#004455;fill-opacity:1"
       d="m 360.33821,419.72915 c -19.47756,0.16229 -28.15434,-25.33155 -28.87191,-34.13579 -0.71758,-8.80424 20.00274,-28.03218 39.45387,-28.51882 19.45113,-0.48664 29.0379,32.94731 31.77054,43.75713 1.29849,10.83372 -22.87494,18.7352 -42.3525,18.89748 z"
       id="path5940"
       inkscape:connector-curvature="0"
       sodipodi:nodetypes="ssscs" />
    <path
       style="fill:#004455;fill-opacity:1"
       d="m 367.65626,374.54976 c -19.56192,0.0412 -38.75524,5.18347 -38.85118,-11.59368 -0.096,-16.77716 4.29449,-19.09163 34.71508,-20.22521 19.54828,-0.72844 35.04398,-11.64629 35.48924,14.11834 0.25339,25.76544 -11.79122,17.65941 -31.35314,17.70055 z"
       id="path4202"
       inkscape:connector-curvature="0"
       sodipodi:nodetypes="ssscs" />
  </g>
  <g
     inkscape:groupmode="layer"
     id="layer18"
     inkscape:label="back thigh"
     style="display:inline">
    <path
       style="fill:#ffe7cd;fill-opacity:1;fill-rule:evenodd"
       d="m 446.41199,490.71697 c 19.93526,42.23755 92.69785,193.94137 34.88222,164.05759 -28.60912,-42.45647 -93.85574,-93.02827 -109.2969,-141.23827 l 38.07468,-24.35663 z"
       id="path5998-3"
       inkscape:connector-curvature="0"
       sodipodi:nodetypes="ccccc" />
    <path
       style="display:inline;fill:#6c5d53;fill-opacity:1"
       d="m 431.53929,885.33477 c 1.56789,-1.6829 42.92617,0.81442 42.92617,0.81442 l -3.92023,13.0566 c 0,0 -12.5723,1.08296 -20.90581,0.55111 -8.33351,-0.53186 -18.26654,-1.28149 -19.05913,-2.62142 -0.7926,-1.33994 -0.6089,-10.11779 0.959,-11.80071 z"
       id="rect5062-3"
       inkscape:connector-curvature="0"
       sodipodi:nodetypes="zcczzz" />
    <path
       style="display:inline;fill:#6c5d53;fill-opacity:1"
       d="m 469.54745,887.03409 c 0,0 92.84307,1.13446 93.99606,2.30085 1.15299,1.16639 0.56618,11.65969 -0.67811,13.25851 -1.2443,1.59882 -18.78278,3.60549 -32.01109,3.02109 -13.22831,-0.58441 -53.40686,-6.92026 -53.40686,-6.92026 z"
       id="rect5064-0"
       inkscape:connector-curvature="0"
       sodipodi:nodetypes="czzzcc" />
    <path
       style="display:inline;fill:#24221c;fill-rule:evenodd"
       d="m 471.92346,883.76755 c -11.58714,-9.49204 -7.9303,-32.79364 -5.93675,-35.54059 1.99354,-2.74695 23.2172,-6.45211 23.2172,-6.45211 10.74272,13.07444 27.37363,23.46674 31.80129,36.27694 4.42766,12.81021 -37.49459,15.2078 -49.08174,5.71576 z"
       id="path4694-0-6-5"
       inkscape:connector-curvature="0"
       sodipodi:nodetypes="zzcsz" />
    <path
       style="display:inline;fill:#24221c;fill-rule:evenodd"
       d="m 433.51066,886.8274 c -0.96476,-1.56901 14.36176,-55.54277 18.75524,-56.75007 4.39347,-1.20731 33.93424,5.94193 33.93424,5.94193 4.86494,15.32743 -3.17422,52.16662 -3.17422,52.16662 0,0 -14.36929,1.46438 -49.51526,-1.35848 z"
       id="path4694-0-9"
       inkscape:connector-curvature="0"
       sodipodi:nodetypes="czccc" />
    <path
       style="display:inline;fill:#ffe7cd;fill-opacity:1;fill-rule:evenodd"
       d="m 489.50918,641.65249 c 14.29039,4.96629 26.25586,43.03232 21.2125,73.1298 -5.0434,30.09749 -30.76783,93.7104 -30.76783,93.7104 0,0 -24.70459,-87.29854 -16.94971,-117.97329 7.75487,-30.67475 12.21469,-53.8332 26.50508,-48.86692 z"
       id="path6002-4"
       inkscape:connector-curvature="0"
       sodipodi:nodetypes="zzczz" />
    <path
       style="display:inline;fill:#f4f4f2;fill-opacity:1;fill-rule:evenodd"
       d="m 458.62436,812.72172 c 0.29665,-2.06125 5.99752,-59.13577 5.99752,-59.13577 l 40.34135,9.37792 c 0,0 -14.26208,49.92863 -20.1539,57.43832 -5.89183,7.5097 -10.1873,10.09538 -16.26341,8.13163 -6.07611,-1.96377 -10.97348,-8.50279 -9.92156,-15.8121 z"
       id="path4656-0"
       inkscape:connector-curvature="0"
       sodipodi:nodetypes="scczzs" />
    <path
       style="display:inline;fill-opacity:1;fill-rule:evenodd;stroke:#aaeeff;stroke-width:1px;stroke-linecap:butt;stroke-linejoin:miter;stroke-opacity:1"
       d="m 464.09256,763.52265 38.06167,8.584"
       id="path4660-9"
       inkscape:connector-curvature="0"
       sodipodi:nodetypes="cc" />
    <path
       style="display:inline;fill-opacity:1;fill-rule:evenodd;stroke:#aaeeff;stroke-width:1px;stroke-linecap:butt;stroke-linejoin:miter;stroke-opacity:1"
       d="m 462.64069,776.11897 36.11858,7.83493"
       id="path4660-4-0"
       inkscape:connector-curvature="0"
       sodipodi:nodetypes="cc" />
    <path
       style="display:inline;fill:#24221c;fill-rule:evenodd"
       d="m 443.77045,809.29004 c 1.45178,-1.17202 53.72055,7.85065 55.67836,11.82067 1.95782,3.97002 -4.62108,22.79752 -4.62108,22.79752 0,0 -1.34219,3.95556 -15.67381,2.28353 -14.33162,-1.67204 -34.29427,-6.32397 -35.65299,-9.39703 -1.59528,-3.60809 -1.18226,-26.33267 0.26952,-27.50469 z"
       id="path4694-09"
       inkscape:connector-curvature="0"
       sodipodi:nodetypes="zzczsz" />
    <path
       style="display:inline;fill:#6c5d53;fill-rule:evenodd"
       d="m 515.36033,812.021 c -3.95802,16.46602 -4.51322,16.53179 -8.4864,26.62653 -1.79435,4.55892 0.0339,5.91452 -2.25055,7.4604 -2.2844,1.54588 -33.4293,3.73927 -42.9454,-2.56936 -2.68123,-1.7775 8.38086,-19.16596 17.81543,-27.49595 9.48234,-8.37214 21.90687,-9.52753 35.86692,-4.02162 z"
       id="path4694-8-4"
       inkscape:connector-curvature="0"
       sodipodi:nodetypes="cszssc" />
    <path
       style="display:inline;fill:#24221c;fill-rule:evenodd"
       d="m 484.17284,883.64637 c -7.00959,-11.19374 15.06414,-21.14756 45.22829,-22.78598 30.16416,-1.63843 33.28454,23.47531 31.83339,30.59509 -1.24823,6.1241 -70.05208,3.38462 -77.06168,-7.80911 z"
       id="path4694-0-8-9"
       inkscape:connector-curvature="0"
       sodipodi:nodetypes="zzsz" />
    <path
       style="display:inline;fill:#6c5d53;fill-opacity:1"
       d="m 502.67537,854.24516 c -0.51724,1.5005 -33.13166,12.45205 -33.13166,12.45205 l 0.18672,-8.85285 c 0,0 13.07507,-6.58737 18.26296,-8.37584 5.18791,-1.78847 11.40134,-3.8447 12.22655,-3.17306 0.82522,0.67164 2.9727,6.44922 2.45543,7.9497 z"
       id="rect5062-8-47"
       inkscape:connector-curvature="0"
       sodipodi:nodetypes="zcczzz" />
    <path
       style="display:inline;fill:#6c5d53;fill-opacity:1"
       d="m 513.86452,862.33385 c -0.24786,1.85711 -30.7903,17.42307 -30.7903,17.42307 l -1.81882,-10.3306 c 0,0 8.02742,-6.8262 13.55822,-10.03905 5.53081,-3.21284 13.16576,-6.2981 14.26504,-5.69784 1.09929,0.60026 5.03374,6.78732 4.78586,8.64442 z"
       id="rect5062-8-4-8"
       inkscape:connector-curvature="0"
       sodipodi:nodetypes="zcczzz" />
    <path
       style="display:inline;fill:#ffe7cd;fill-opacity:1"
       d="m 496.13266,669.21731 c -6.74386,0.0285 -12.22885,-9.31129 -12.26192,-20.87918 -0.0331,-11.5679 5.39824,-20.99939 12.14194,-21.08448 6.7437,-0.0851 12.25534,9.2083 12.32177,20.87868 3e-4,11.67093 -5.45793,21.0566 -12.20179,21.08498 z"
       id="path6000-6"
       inkscape:connector-curvature="0"
       sodipodi:nodetypes="ssscs" />
    <path
       style="display:inline;fill:#ffe7cd;fill-opacity:1"
       d="m 478.56773,667.57757 c -9.05749,0.0319 -5.98569,-8.08288 -6.03011,-21.0783 -0.0444,-12.99542 -3.18831,-25.96825 5.86897,-26.06385 9.05727,-0.0956 26.63836,10.88036 23.87045,23.81233 -2.85674,12.9326 -14.65182,23.29795 -23.70931,23.32982 z"
       id="path6000-3-5"
       inkscape:connector-curvature="0"
       sodipodi:nodetypes="ssscs" />
    <path
       transform="matrix(1,0,0.41467061,0.90997159,0,0)"
       style="fill:#ffeddd;fill-opacity:1"
       d="m 205.8547,695.71001 c -13.38934,0.0838 -12.5162,-36.93834 -12.58187,-71.12649 -0.0657,-34.18815 -11.17194,-55.78267 2.21708,-56.03417 13.38901,-0.2515 23.00513,-7.32431 24.13377,35.80207 1.12864,43.12638 -0.37964,91.27475 -13.76898,91.35859 z"
       id="path5567"
       inkscape:connector-curvature="0"
       sodipodi:nodetypes="ssszs" />
  </g>
  <g
     inkscape:groupmode="layer"
     id="layer11"
     inkscape:label="front thigh"
     style="display:inline">
    <path
       style="fill:#ffeddd;fill-opacity:1;fill-rule:evenodd"
       d="m 353.38269,522.13528 c -0.33111,46.70456 -7.62754,225.51118 -44.23494,153.33414 -18.08976,-39.122 -39.68883,-114.86546 -32.71982,-165.00592 l 44.86809,-5.45725 z"
       id="path5998"
       inkscape:connector-curvature="0"
       sodipodi:nodetypes="ccccc" />
    <path
       style="fill:#ffe7cd;fill-opacity:1"
       d="m 327.76878,536.59887 c -29.04305,0.0463 -51.90706,32.51467 -52.0495,13.61225 -0.14244,-18.90243 23.24805,-34.31388 52.29041,-34.45294 29.04235,-0.13906 25.64694,0.39855 24.90682,23.51004 -0.74012,23.1115 3.89532,-2.7157 -25.14773,-2.66935 z"
       id="path5570"
       inkscape:connector-curvature="0"
       sodipodi:nodetypes="ssszs" />
  </g>
  <g
     inkscape:groupmode="layer"
     id="layer12"
     inkscape:label="front shin"
     style="display:inline">
    <path
       style="fill:#6c5d53;fill-opacity:1"
       d="m 216.928,925.92677 c 1.7517,-1.95534 47.95859,0.94625 47.95859,0.94625 l -4.37981,15.17024 c 0,0 -14.04621,1.25827 -23.35669,0.64032 -9.31049,-0.61795 -20.40801,-1.48893 -21.29352,-3.04578 -0.88551,-1.55685 -0.68028,-11.75568 1.07143,-13.71103 z"
       id="rect5062"
       inkscape:connector-curvature="0"
       sodipodi:nodetypes="zcczzz" />
    <path
       style="fill:#6c5d53;fill-opacity:1"
       d="m 259.39202,927.90117 c 0,0 103.72746,1.31811 105.01562,2.67332 1.28816,1.35521 0.63256,13.54719 -0.75761,15.40483 -1.39017,1.85764 -20.98476,4.18916 -35.76388,3.51015 -14.77912,-0.67901 -59.66798,-8.04052 -59.66798,-8.04052 z"
       id="rect5064"
       inkscape:connector-curvature="0"
       sodipodi:nodetypes="czzzcc" />
    <path
       style="display:inline;fill:#2b2200;fill-rule:evenodd"
       d="m 262.04658,924.10584 c -12.94555,-11.02864 -8.86,-38.10236 -6.63274,-41.29399 2.22725,-3.19164 25.93905,-7.4966 25.93905,-7.4966 12.00214,15.19097 30.58276,27.2656 35.5295,42.14955 4.94673,14.88396 -41.89025,17.66968 -54.83581,6.64104 z"
       id="path4694-0-6"
       inkscape:connector-curvature="0"
       sodipodi:nodetypes="zzcsz" />
    <path
       style="display:inline;fill:#28220b;fill-rule:evenodd"
       d="m 219.13049,927.66103 c -1.07787,-1.82301 16.04545,-64.53418 20.95399,-65.93692 4.90854,-1.40275 37.9125,6.90383 37.9125,6.90383 5.43528,17.80867 -3.54635,60.61148 -3.54635,60.61148 0,0 -16.05386,1.70144 -55.32014,-1.57839 z"
       id="path4694-0"
       inkscape:connector-curvature="0"
       sodipodi:nodetypes="czccc" />
    <path
       style="fill:#ffeddd;fill-opacity:1;fill-rule:evenodd"
       d="m 320.86837,681.7331 c 12.34285,8.74833 13.23788,48.64061 0.0149,76.14419 -13.22302,27.50357 -55.64002,81.44008 -55.64002,81.44008 0,0 0.57558,-90.72497 16.56359,-118.02812 15.98801,-27.30315 26.71872,-48.30448 39.06157,-39.55615 z"
       id="path6002"
       inkscape:connector-curvature="0"
       sodipodi:nodetypes="zzczz" />
    <path
       style="fill:#f4f4f2;fill-opacity:1;fill-rule:evenodd"
       d="m 247.37932,843.01377 c 0.64601,-1.97975 16.05784,-57.22898 16.05784,-57.22898 l 38.13326,16.16244 c 0,0 -22.61958,46.74004 -29.71284,53.1271 -7.09327,6.38707 -11.76878,8.19717 -17.4177,5.21972 -5.64892,-2.97745 -9.35135,-10.25997 -7.06056,-17.28028 z"
       id="path4656"
       inkscape:connector-curvature="0"
       sodipodi:nodetypes="scczzs" />
    <path
       style="fill-opacity:1;fill-rule:evenodd;stroke:#aaeeff;stroke-width:1px;stroke-linecap:butt;stroke-linejoin:miter;stroke-opacity:1"
       d="m 261.21028,795.48321 36.02367,14.98904"
       id="path4660"
       inkscape:connector-curvature="0"
       sodipodi:nodetypes="cc" />
    <path
       style="fill-opacity:1;fill-rule:evenodd;stroke:#aaeeff;stroke-width:1px;stroke-linecap:butt;stroke-linejoin:miter;stroke-opacity:1"
       d="m 257.61809,807.64345 34.23796,13.9176"
       id="path4660-4"
       inkscape:connector-curvature="0"
       sodipodi:nodetypes="cc" />
    <path
       style="fill:#28220b;fill-rule:evenodd"
       d="m 230.59307,837.57172 c 1.62198,-1.36175 60.01844,9.12153 62.20578,13.73423 2.18734,4.6127 -5.16283,26.48804 -5.16283,26.48804 0,0 -1.49954,4.5959 -17.51132,2.65319 -16.01178,-1.94271 -38.31474,-7.34771 -39.83274,-10.91824 -1.7823,-4.19218 -1.32087,-30.59547 0.30111,-31.95722 z"
       id="path4694"
       inkscape:connector-curvature="0"
       sodipodi:nodetypes="zzczsz" />
    <path
       style="display:inline;fill:#6c5d53;fill-rule:evenodd"
       d="m 310.57574,840.74478 c -4.42203,19.13158 -5.04232,19.20799 -9.4813,30.9369 -2.0047,5.29693 0.0379,6.87197 -2.51439,8.6681 -2.55221,1.79613 -37.34836,4.3446 -47.98007,-2.98529 -2.99556,-2.06525 9.36338,-22.2686 19.90401,-31.94706 10.59399,-9.72745 24.47511,-11.06988 40.07175,-4.67265 z"
       id="path4694-8"
       inkscape:connector-curvature="0"
       sodipodi:nodetypes="cszssc" />
    <path
       style="display:inline;fill:#28220b;fill-rule:evenodd"
       d="m 275.73201,923.96504 c -7.83136,-13.00581 16.83017,-24.57098 50.5306,-26.47463 33.70043,-1.90366 37.18663,27.27555 35.56535,35.5479 -1.39456,7.11549 -78.26459,3.93253 -86.09595,-9.07327 z"
       id="path4694-0-8"
       inkscape:connector-curvature="0"
       sodipodi:nodetypes="zzsz" />
    <path
       style="display:inline;fill:#6c5d53;fill-opacity:1"
       d="m 296.40367,889.80429 c -0.57788,1.7434 -37.01583,14.46782 -37.01583,14.46782 l 0.20861,-10.28597 c 0,0 14.60792,-7.65375 20.40401,-9.73175 5.79611,-2.07799 12.73797,-4.46708 13.65992,-3.68672 0.92196,0.78037 3.3212,7.49324 2.74329,9.23662 z"
       id="rect5062-8"
       inkscape:connector-curvature="0"
       sodipodi:nodetypes="zcczzz" />
    <path
       style="display:inline;fill:#6c5d53;fill-opacity:1"
       d="m 308.90457,899.2024 c -0.27691,2.15774 -34.39998,20.24356 -34.39998,20.24356 l -2.03205,-12.00295 c 0,0 8.96851,-7.93124 15.14771,-11.66419 6.17921,-3.73295 14.70924,-7.31765 15.9374,-6.62022 1.22816,0.69743 5.62386,7.88607 5.34692,10.0438 z"
       id="rect5062-8-4"
       inkscape:connector-curvature="0"
       sodipodi:nodetypes="zcczzz" />
  </g>
  <g
     inkscape:groupmode="layer"
     id="layer13"
     inkscape:label="front knee"
     style="display:inline">
    <path
       style="fill:#ffeddd;fill-opacity:1"
       d="m 320.9403,710.5895 c -6.44972,-1.97019 -8.92232,-12.51547 -5.52771,-23.57412 3.39459,-11.05867 11.37568,-18.45832 17.842,-16.54223 6.46632,1.91609 8.97813,12.42495 5.58502,23.59138 -3.45644,11.14736 -11.44963,18.49528 -17.89931,16.52497 z"
       id="path6000"
       inkscape:connector-curvature="0"
       sodipodi:nodetypes="ssscs" />
    <path
       style="fill:#ffeddd;fill-opacity:1"
       d="m 308.076,704.32643 c -9.05749,0.0305 -3.96539,-18.25651 -4.00981,-30.69502 -0.0444,-12.4385 -1.67308,-16.86073 7.3842,-16.95223 9.05727,-0.0915 23.10283,12.93946 20.33492,25.31723 -2.85674,12.37838 -14.65182,22.29952 -23.70931,22.33002 z"
       id="path6000-3"
       inkscape:connector-curvature="0"
       sodipodi:nodetypes="ssscs" />
  </g>
  <g
     inkscape:groupmode="layer"
     id="layer14"
     inkscape:label="front bicep"
     style="display:inline" />
  <g
     inkscape:groupmode="layer"
     id="layer17"
     inkscape:label="back hip"
     style="display:inline">
    <path
       style="fill:#006680;fill-opacity:1;fill-rule:evenodd"
       d="m 372.17215,513.26867 73.40184,-28.54562 c 0,0 -33.31829,-42.07878 -52.42718,-32.74983 -20.39013,12.26636 -30.68285,30.17984 -20.97466,61.29545 z"
       id="path3385-5"
       inkscape:connector-curvature="0"
       sodipodi:nodetypes="cccc" />
    <path
       style="fill:#f4f4f2;fill-rule:evenodd;fill-opacity:1"
       d="m 444.9104,479.68352 -0.12267,-7.06577 c 0,0 -27.48942,7.09258 -40.33649,13.65996 -12.84706,6.56737 -39.64741,27.58589 -39.64741,27.58589 l 8.95448,20.78016 c 0,0 12.64364,-2.55978 20.47347,-7.31435 5.53894,-3.30334 27.65319,-16.56518 42.31126,-20.78691 14.65808,-4.22172 30.43142,-6.54619 30.43142,-6.54619 0,0 -8.55081,-8.86916 -10.58277,-13.00927 -2.03195,-4.1401 -2.36848,-9.43783 -2.36848,-9.43783 z"
       id="path5948-5"
       inkscape:connector-curvature="0"
       sodipodi:nodetypes="cczcccsczcc" />
  </g>
  <g
     inkscape:groupmode="layer"
     id="layer7"
     inkscape:label="front hip"
     style="display:inline">
    <rect
       style="display:inline;fill:#1b5b6f;fill-opacity:1"
       id="rect5221-2"
       width="7.323606"
       height="14.725377"
       x="359.76883"
       y="404.47607"
       transform="matrix(1,0,0.10289914,0.99469179,0,0)" />
    <path
       style="fill:#006680;fill-rule:evenodd"
       d="m 330.52166,395.25798 c -21.26856,33.35051 -38.24447,45.86337 -43.39504,71.61929 -15.2377,76.19773 83.77268,50.39994 83.77268,50.39994 0,0 26.41295,-17.08427 33.27683,-42.32923 3.43194,-12.62248 12.97656,-8.07513 12.25623,-19.74809 -0.72033,-11.67296 -11.70561,-39.56622 -10.76203,-54.21277 -17.72727,-3.36768 -48.20224,-4.89952 -75.14867,-5.72914 z"
       id="path5943"
       inkscape:connector-curvature="0"
       sodipodi:nodetypes="cscsscc" />
    <path
       style="fill:#006680;fill-opacity:1;fill-rule:evenodd"
       d="m 352.39966,516.21631 -80.8122,-10.10153 c 0,0 -1.94446,-53.25895 35.64813,-49.79769 37.59259,3.46126 45.16407,59.89922 45.16407,59.89922 z"
       id="path3385"
       inkscape:connector-curvature="0"
       sodipodi:nodetypes="cczc" />
    <path
       style="fill:#f4f4f2;fill-rule:evenodd;fill-opacity:1"
       d="m 257.96482,518.12701 -8.73731,-13.82395 c 0,0 41.66303,-10.84749 61.63035,-11.21937 19.96732,-0.37188 52.14286,11.42857 52.14286,11.42857 l 2.14286,31.42857 -12.14286,2.14286 c 0,0 2.23178,-3.51625 -15.71429,-4.28571 -17.94607,-0.76946 -78.38325,15.67096 -78.38325,15.67096 L 246.2045,521.40258 Z"
       id="path5948"
       inkscape:connector-curvature="0"
       sodipodi:nodetypes="cczccczccc" />
    <path
       style="fill:#f4f4f2;fill-opacity:1"
       id="path5219"
       sodipodi:type="arc"
       sodipodi:cx="392.69681"
       sodipodi:cy="409.65265"
       sodipodi:rx="6.0609155"
       sodipodi:ry="6.3134532"
       sodipodi:start="0"
       sodipodi:end="6.2733766"
       sodipodi:open="true"
       d="m 398.75772,409.65265 a 6.0609155,6.3134532 0 0 1 -6.04605,6.31343 6.0609155,6.3134532 0 0 1 -6.0757,-6.28247 6.0609155,6.3134532 0 0 1 6.01625,-6.34424 6.0609155,6.3134532 0 0 1 6.10521,6.25135" />
    <rect
       style="fill:#1b5b6f;fill-opacity:1"
       id="rect5221"
       width="7.323606"
       height="14.863323"
       x="430.40085"
       y="406.21506"
       transform="matrix(1,0,-0.16990692,0.98546012,0,0)" />
    <rect
       style="fill:#1b5b6f;fill-opacity:1"
       id="rect5223"
       width="7.5761442"
       height="15.336365"
       x="457.36639"
       y="417.55679"
       transform="matrix(1,0,-0.29639921,0.95506414,0,0)" />
  </g>
  <g
     inkscape:label="Face"
     inkscape:groupmode="layer"
     id="layer1">
    <path
       style="fill:#ffcaca;fill-opacity:1"
       d="m 343.06186,92.080317 c -14.21393,-14.915328 7.61946,-2.909991 14.28071,-30.537581 21.81559,28.42306 -1.18921,28.006199 -14.28071,30.537581 z"
       id="path5644-9-0-1-4-1"
       inkscape:connector-curvature="0"
       sodipodi:nodetypes="ccc" />
    <path
       style="fill:#ffcaca;fill-opacity:1"
       d="m 350.69586,101.86324 c -26.7095,-28.192166 38.16645,-18.632561 55.16892,-41.019299 11.4858,32.266362 -34.12082,36.391569 -55.16892,41.019299 z"
       id="path5644-9-0-1-4-9"
       inkscape:connector-curvature="0"
       sodipodi:nodetypes="ccc" />
    <path
       style="fill:#ffcaca;fill-opacity:1"
       d="m 360.0398,95.224825 c -16.63935,-5.132399 6.10358,-7.452069 12.76483,-35.079659 7.56624,15.495623 0.32666,32.548277 -12.76483,35.079659 z"
       id="path5644-9-0-1-4"
       inkscape:connector-curvature="0"
       sodipodi:nodetypes="ccc" />
    <path
       style="fill:#ffeddd;fill-opacity:1"
       d="m 411.41634,242.06213 c -14.01134,0.76806 -49.6946,-1.00007 -65.51359,-43.62538 -6.66637,-17.963 -1.84824,-29.11275 8.26982,-47.94847 5.05903,-9.41787 6.23517,-22.67642 4.00104,-32.79344 8.48483,-6.16411 37.14108,-14.62194 49.13944,-15.42658 13.25583,-0.88896 25.13505,14.83445 29.51029,35.62719 4.87094,37.24111 21.29631,99.16055 -25.407,104.16668 z"
       id="path3336"
       inkscape:connector-curvature="0"
       sodipodi:nodetypes="csscscc" />
    <path
       style="fill:#ffeddd;fill-opacity:1"
       id="path5586"
       sodipodi:type="arc"
       sodipodi:cx="303.54959"
       sodipodi:cy="182.56171"
       sodipodi:rx="15.750452"
       sodipodi:ry="27.571466"
       sodipodi:start="0"
       sodipodi:end="6.2733766"
       sodipodi:open="true"
       d="m 319.30004,182.56171 a 15.750452,27.571466 0 0 1 -15.71183,27.57138 15.750452,27.571466 0 0 1 -15.78888,-27.43616 15.750452,27.571466 0 0 1 15.63439,-27.70594 15.750452,27.571466 0 0 1 15.86557,27.30028"
       transform="matrix(1,0,0.16872229,0.98566363,0,0)" />
    <path
       style="fill:#483e37;fill-rule:evenodd"
       d="m 408.60233,152.3544 c -12.32681,-7.66972 -34.33829,-4.89717 -35.197,-4.83896 13.32958,-4.82996 33.35978,-12.80249 35.197,4.83896 z"
       id="path5605-7"
       inkscape:connector-curvature="0"
       sodipodi:nodetypes="ccc" />
    <path
       style="fill:#ffd5d5;fill-opacity:1"
       d="m 392.56232,108.50233 c -35.94606,-5.1324 17.47318,-25.734237 31.8635,-53.361827 23.33627,37.427621 -9.28478,71.147507 -31.8635,53.361827 z"
       id="path5644"
       inkscape:connector-curvature="0"
       sodipodi:nodetypes="ccc" />
    <path
       style="fill:#ffd5d5;fill-opacity:1"
       d="m 408.79199,110.29663 c -33.92085,-14.637678 14.3289,-3.70879 33.90611,-26.715155 5.78419,15.584354 -5.78016,32.256015 -33.90611,26.715155 z"
       id="path5644-9"
       inkscape:connector-curvature="0"
       sodipodi:nodetypes="ccc" />
    <path
       style="fill:#ffd5d5;fill-opacity:1"
       d="m 328.14818,112.20322 c -15.13531,-5.1324 61.45998,-25.969768 73.88584,-41.718084 -8.04868,70.000514 -67.21738,43.728774 -73.88584,41.718084 z"
       id="path5644-9-0-1"
       inkscape:connector-curvature="0"
       sodipodi:nodetypes="ccc" />
    <path
       style="fill:#ffe6d5;fill-opacity:1"
       id="path5692"
       sodipodi:type="arc"
       sodipodi:cx="306.12866"
       sodipodi:cy="183.42952"
       sodipodi:rx="7.358315"
       sodipodi:ry="19.035389"
       sodipodi:start="0"
       sodipodi:end="6.2733766"
       sodipodi:open="true"
       d="m 313.48698,183.42952 a 7.358315,19.035389 0 0 1 -7.34027,19.03533 7.358315,19.035389 0 0 1 -7.37627,-18.94197 7.358315,19.035389 0 0 1 7.30409,-19.12823 7.358315,19.035389 0 0 1 7.41209,18.84816"
       transform="matrix(1,0,0.16443538,0.98638786,0,0)" />
    <path
       style="fill:#ffd5d5;fill-opacity:1"
       d="M 326.98508,110.79537 C 296.01212,104.2393 324.02354,84.431906 369.26261,84.220966 353.68114,112.6527 348.40499,107.88079 326.98508,110.79537 Z"
       id="path5644-9-0-1-2"
       inkscape:connector-curvature="0"
       sodipodi:nodetypes="ccc" />
    <path
       style="fill:#ffd5d5;fill-opacity:1"
       d="m 317.60996,104.38219 c -17.97444,-4.485752 12.7949,-17.073027 29.08595,-34.231904 0.29072,39.747554 -14.94404,32.019454 -29.08595,34.231904 z"
       id="path5644-9-0-1-0"
       inkscape:connector-curvature="0"
       sodipodi:nodetypes="ccc" />
    <path
       style="fill:#aaeeff;fill-opacity:1"
       id="path5854"
       sodipodi:type="arc"
       sodipodi:cx="431.36948"
       sodipodi:cy="162.93622"
       sodipodi:rx="5.4571943"
       sodipodi:ry="6.2890263"
       sodipodi:start="0"
       sodipodi:end="6.2733766"
       sodipodi:open="true"
       d="m 436.82667,162.93622 a 5.4571943,6.2890263 0 0 1 -5.44381,6.28901 5.4571943,6.2890263 0 0 1 -5.47051,-6.25817 5.4571943,6.2890263 0 0 1 5.41698,-6.3197 5.4571943,6.2890263 0 0 1 5.49708,6.22717" />
    <path
       style="fill:#aaeeff;fill-opacity:1"
       id="path5854-9"
       sodipodi:type="arc"
       sodipodi:cx="394.07867"
       sodipodi:cy="165.03262"
       sodipodi:rx="6.3667269"
       sodipodi:ry="7.3371973"
       sodipodi:start="0"
       sodipodi:end="6.2733766"
       sodipodi:open="true"
       d="m 400.4454,165.03262 a 6.3667269,7.3371973 0 0 1 -6.35111,7.33718 6.3667269,7.3371973 0 0 1 -6.38227,-7.30119 6.3667269,7.3371973 0 0 1 6.31982,-7.37299 6.3667269,7.3371973 0 0 1 6.41325,7.26504" />
    <path
       style="fill:#ffd5d5;fill-opacity:1"
       id="path5692-5"
       sodipodi:type="arc"
       sodipodi:cx="-177.37677"
       sodipodi:cy="403.97928"
       sodipodi:rx="7.0099316"
       sodipodi:ry="13.57373"
       sodipodi:start="0"
       sodipodi:end="6.2733766"
       sodipodi:open="true"
       d="m -170.36684,403.97928 a 7.0099316,13.57373 0 0 1 -6.99274,13.57369 7.0099316,13.57373 0 0 1 -7.02704,-13.50712 7.0099316,13.57373 0 0 1 6.95828,-13.63993 7.0099316,13.57373 0 0 1 7.06116,13.44022"
       transform="matrix(0.10501678,-0.99447045,0.99990414,0.0138458,0,0)" />
    <path
       style="fill:#ffd5d5;fill-opacity:1"
       id="path5692-5-9"
       sodipodi:type="arc"
       sodipodi:cx="-102.18953"
       sodipodi:cy="496.08102"
       sodipodi:rx="6.4845319"
       sodipodi:ry="8.8742619"
       sodipodi:start="0"
       sodipodi:end="6.2733766"
       sodipodi:open="true"
       d="m -95.704998,496.08102 a 6.4845319,8.8742619 0 0 1 -6.468632,8.87424 6.4845319,8.8742619 0 0 1 -6.50035,-8.83071 6.4845319,8.8742619 0 0 1 6.43675,-8.91755 6.4845319,8.8742619 0 0 1 6.531921,8.78698"
       transform="matrix(0.45685384,-0.88954178,0.98447321,0.17553491,0,0)" />
    <path
       style="fill:#483e37;fill-rule:evenodd"
       d="m 423.99163,152.7246 c 5.92345,-7.66971 14.76899,-5.88539 15.18163,-5.82718 -6.40532,-4.82996 -15.22593,-8.10842 -15.18163,5.82718 z"
       id="path5605-7-6"
       inkscape:connector-curvature="0"
       sodipodi:nodetypes="ccc" />
  </g>
  <g
     inkscape:groupmode="layer"
     id="layer2"
     inkscape:label="Hair" />
  <g
     inkscape:groupmode="layer"
     id="layer15"
     inkscape:label="front forearm"
     style="display:inline">
    <path
       style="fill:#ffeddd;fill-opacity:1;fill-rule:evenodd"
       d="m 261.21753,388.71769 c 13.79011,-1.90827 29.15833,20.36638 30.77598,53.5282 1.61766,33.16183 20.9846,73.05916 20.9846,73.05916 0,0 -0.53477,17.54608 -11.15777,3.74576 -10.62302,-13.80032 -27.75975,-43.0761 -36.65682,-62.08349 -17.79414,-38.01478 -17.73611,-66.34138 -3.94599,-68.24963 z"
       id="path5996"
       inkscape:connector-curvature="0"
       sodipodi:nodetypes="zscssz" />
    <path
       style="display:inline;fill:#ffeddd;fill-opacity:1"
       d="m 308.97588,285.78243 c 13.69526,37.67038 -40.01708,120.85209 -50.50029,95.77061 -10.48321,-25.08148 24.46897,-104.49634 50.50029,-95.77061 z"
       id="rect5993"
       inkscape:connector-curvature="0"
       sodipodi:nodetypes="czc" />
    <path
       style="display:inline;fill:#ffeddd;fill-opacity:1"
       id="path5989"
       d="m 306.47573,263.27635 c 8.43841,-1.15197 20.97069,3.88643 22.40464,12.28151 2.99543,36.94589 -60.2037,41.14591 -44.44889,9.21365 4.54103,-9.20388 11.87542,-20.10697 22.04425,-21.49516 z"
       inkscape:connector-curvature="0"
       sodipodi:nodetypes="acsa" />
    <path
       style="display:inline;fill:#ffeddd;fill-opacity:1"
       id="path5989-3"
       d="m 249.34229,379.24824 c 2.36943,-4.27638 9.02762,-8.32804 13.42607,-6.12789 18.21571,11.20849 -1.58945,41.72787 -11.01771,23.59737 -2.71753,-5.22577 -5.26367,-12.31615 -2.40836,-17.46948 z"
       inkscape:connector-curvature="0"
       sodipodi:nodetypes="acsa" />
  </g>
  <g
     inkscape:groupmode="layer"
     id="layer19"
     inkscape:label="front hand"
     style="display:inline">
    <path
       style="display:inline;fill:#ffe7cd;fill-opacity:1"
       d="m 323.93818,563.60723 c -8.1899,2.32538 -21.85189,-0.26315 -23.27411,-24.43472 -0.76862,-13.06303 1.16139,-21.70951 6.61712,-23.09581 8.25168,-2.09676 21.42373,7.71996 25.06249,20.41033 11.56548,24.29498 -0.21562,24.79476 -8.4055,27.1202 z"
       id="path4235-5"
       inkscape:connector-curvature="0"
       sodipodi:nodetypes="ssscs" />
    <path
       style="fill:#ffe7cd;fill-opacity:1"
       d="m 352.19151,567.21635 c -8.97405,2.66492 -11.80586,-19.80382 -18.82634,-20.16363 -7.02048,-0.3598 -1.61966,0.85386 -7.5204,-2.48375 -11.8015,-6.67522 -3.8604,-23.86017 -1.14117,-23.10397 11.43482,6.24036 24.48641,29.13644 27.48791,45.75135 z"
       id="path4237-1-1"
       inkscape:connector-curvature="0"
       sodipodi:nodetypes="csscc" />
    <path
       style="fill:#ffe7cd;fill-opacity:1"
       d="m 339.70718,590.72895 c -3.37268,0.81046 -2.95793,-14.04834 -6.38681,-28.95175 -3.42885,-14.9034 -9.40762,-24.22823 -6.05176,-25.1118 3.35587,-0.88352 13.75043,8.754 15.33879,24.51104 1.55537,15.76535 0.47247,28.74201 -2.90022,29.55251 z"
       id="path4237"
       inkscape:connector-curvature="0"
       sodipodi:nodetypes="ssscs" />
    <path
       style="fill:#ffe7cd;fill-opacity:1"
       d="m 321.37183,597.20129 c -3.4685,0.0375 -0.42729,-13.45338 -0.4443,-28.74614 -0.017,-15.29275 -3.08582,-26.61732 0.38258,-26.72982 3.46841,-0.11244 11.45047,11.60146 9.4829,27.31565 -2.00158,15.71492 -5.95269,28.12279 -9.42118,28.16031 z"
       id="path4237-5"
       inkscape:connector-curvature="0"
       sodipodi:nodetypes="ssscs" />
    <path
       style="fill:#ffe7cd;fill-opacity:1"
       d="m 309.36139,591.76801 c -3.46849,0.0333 0.85955,-11.70663 0.84253,-25.26516 -0.017,-13.55853 0.20276,-27.10855 3.67116,-27.20829 3.46841,-0.0996 6.87506,13.5744 4.90749,27.50657 -2.00158,13.93283 -5.95269,24.93362 -9.42118,24.96688 z"
       id="path4237-6"
       inkscape:connector-curvature="0"
       sodipodi:nodetypes="ssscs" />
    <path
       style="fill:#ffe7cd;fill-opacity:1"
       d="m 303.17133,586.62067 c -2.82075,0.0333 -1.85912,-11.42066 -1.87296,-24.97919 -0.0138,-13.55853 5.57926,-25.9647 8.39991,-26.06444 2.82066,-0.0996 1.73402,12.43055 0.13391,26.36272 -1.62778,13.93283 -3.84013,24.64766 -6.66086,24.68091 z"
       id="path4237-1"
       inkscape:connector-curvature="0"
       sodipodi:nodetypes="ssscs" />
    <path
       style="fill:#ffeddd;fill-opacity:1"
       d="m 322.83018,560.85344 c -8.1899,2.32538 -21.85189,-0.26315 -23.27411,-24.43472 -0.76862,-13.06303 1.16139,-21.70951 6.61712,-23.09581 8.25168,-2.09676 21.42373,7.71996 25.06249,20.41033 11.56548,24.29498 -0.21562,24.79476 -8.4055,27.1202 z"
       id="path4235"
       inkscape:connector-curvature="0"
       sodipodi:nodetypes="ssscs" />
    <path
       style="fill:#ffeddd;fill-opacity:1"
       d="m 325.99069,575.48713 c -1.91979,0.0146 -4.55265,4.22354 -3.49064,-10.75055 0.42138,-5.94131 -13.01461,-10.3508 3.45648,-10.85627 8.70649,-0.26719 3.48876,4.7413 3.50767,10.7503 0.17866,16.00928 -1.55372,10.84191 -3.47351,10.85652 z"
       id="path5394"
       inkscape:connector-curvature="0"
       sodipodi:nodetypes="ssscs" />
    <path
       transform="matrix(0.78428761,0.62039741,0.19326292,0.981147,0,0)"
       style="fill:#ffeddd;fill-opacity:1"
       d="m 343.5968,362.93384 c -7.57614,4.65578 -2.72232,6.25941 -5.24956,-11.78515 -0.82506,-5.89093 3.56371,-22.01818 6.45081,-22.06622 2.8871,-0.048 3.60184,12.33476 3.49747,19.46104 -1.35467,18.09142 -0.0312,11.52201 -4.69872,14.39033 z"
       id="path5396"
       inkscape:connector-curvature="0"
       sodipodi:nodetypes="ssscs" />
    <path
       style="fill:#ffeddd;fill-opacity:1"
       d="m 314.82889,574.23718 c -1.67367,0.0173 -3.74921,2.28043 -3.04313,-12.7052 0.3313,-7.03139 1.33972,-12.77836 3.01335,-12.83013 1.67363,-0.0518 3.04148,5.60335 3.05797,12.70489 -0.0892,15.94118 -1.35452,12.81318 -3.02819,12.83044 z"
       id="path5398"
       inkscape:connector-curvature="0"
       sodipodi:nodetypes="csscc" />
    <path
       style="fill:#ffeddd;fill-opacity:1"
       d="m 304.78389,570.30857 c -4.815,23.17838 -4.24031,-0.0815 -3.26601,-11.77318 0.53347,-6.4017 2.70919,-11.30423 4.30898,-11.35147 1.59979,-0.0472 2.9073,5.11355 2.92306,11.59432 -0.35707,13.17753 -2.82504,6.03784 -3.96603,11.53033 z"
       id="path5400"
       inkscape:connector-curvature="0"
       sodipodi:nodetypes="ssscs" />
    <path
       transform="matrix(0.66182972,-0.7496542,0.7496542,0.66182972,0,0)"
       style="display:inline;fill:#ffeddd;fill-opacity:1"
       d="m -173.86643,597.96558 c 0,5.9563 -4.70732,19.85668 -6.62563,19.77963 -6.07863,-0.24416 0.92798,-10.59262 -10.14953,-8.44485 -5.84735,1.13371 11.34765,-22.09423 13.2674,-22.13806 1.91975,-0.0438 3.48876,4.74129 3.50759,10.69731"
       id="path5394-2"
       inkscape:connector-curvature="0"
       sodipodi:nodetypes="csssc" />
    <path
       style="display:inline;fill:#ffeddd;fill-opacity:1"
       d="m 347.64639,556.7237 c -1.51172,0.7352 -1.89193,-3.76151 -3.24149,-6.10591 -4.26104,-7.40212 -7.05678,-11.32604 -5.58975,-12.1598 1.46704,-0.83376 6.00444,4.4361 8.50641,11.7141 0.89483,3.645 1.83655,5.8164 0.32483,6.55161 z"
       id="path5396-6"
       inkscape:connector-curvature="0"
       sodipodi:nodetypes="ssscs" />
    <path
       style="fill:#88aa00;fill-opacity:1"
       d="m 342.44171,586.42932 c 0,2.3013 -0.92108,4.16688 -2.05728,4.16688 -1.13621,1e-5 -2.0573,-1.86557 -2.0573,-4.16688 0,-2.30131 1.13287,-1.42053 2.26907,-1.42053 1.13621,10e-6 1.84551,-0.88077 1.84551,1.42053 z"
       id="path5480"
       inkscape:connector-curvature="0"
       sodipodi:nodetypes="sssss" />
    <path
       style="display:inline;fill:#88aa00;fill-opacity:1"
       d="m 325.11469,592.67896 c -0.35716,2.3013 -1.60775,4.16688 -2.79327,4.16688 -1.18552,1e-5 -1.85704,-1.86557 -1.49988,-4.16688 0.35716,-2.30131 1.40249,-1.42053 2.58801,-1.42053 1.18552,10e-6 2.0623,-0.88077 1.70514,1.42053 z"
       id="path5480-5"
       inkscape:connector-curvature="0"
       sodipodi:nodetypes="sssss" />
    <path
       style="display:inline;fill:#88aa00;fill-opacity:1"
       d="m 313.04277,587.50039 c -0.64289,2.3013 -2.1251,4.16688 -3.31062,4.16688 -1.18552,10e-6 -1.62542,-1.86557 -0.98253,-4.16688 0.64289,-2.30131 1.57887,-1.42053 2.76439,-1.42053 1.18551,10e-6 2.17165,-0.88077 1.52876,1.42053 z"
       id="path5480-5-4"
       inkscape:connector-curvature="0"
       sodipodi:nodetypes="sssss" />
    <path
       style="display:inline;fill:#88aa00;fill-opacity:1"
       d="m 305.65666,583.3864 c -0.44414,2.03228 -1.65783,3.67977 -2.71086,3.67977 -1.05303,10e-6 -1.54663,-1.64748 -1.10249,-3.67977 0.44415,-2.03228 1.32408,-1.25446 2.37711,-1.25446 1.05303,10e-6 1.88039,-0.77781 1.43624,1.25446 z"
       id="path5480-5-4-1"
       inkscape:connector-curvature="0"
       sodipodi:nodetypes="sssss"
       inkscape:transform-center-x="-0.079306929"
       inkscape:transform-center-y="-0.15769445" />
    <path
       style="display:inline;fill:#88aa00;fill-opacity:1"
       d="m 351.52254,562.72075 c 0.71676,2.3013 0.65492,4.16688 -0.13812,4.16688 -0.79305,1e-5 -2.01699,-1.86557 -2.73375,-4.16688 -0.71676,-2.30131 0.34828,-1.42053 1.14132,-1.42053 0.79305,1e-5 1.01379,-0.88077 1.73055,1.42053 z"
       id="path5480-5-4-1-7"
       inkscape:connector-curvature="0"
       sodipodi:nodetypes="sssss" />
  </g>
  <g
     inkscape:groupmode="layer"
     id="layer16"
     inkscape:label="front shoulder"
     style="display:inline" />
</svg>
